<?xml version="1.0" encoding="UTF-8" standalone="no"?><!DOCTYPE svg PUBLIC "-//W3C//DTD SVG 1.1//EN" "http://www.w3.org/Graphics/SVG/1.1/DTD/svg11.dtd"><svg width="100%" height="100%" viewBox="0 0 32 32" version="1.1" xmlns="http://www.w3.org/2000/svg" xmlns:xlink="http://www.w3.org/1999/xlink" xml:space="preserve" xmlns:serif="http://www.serif.com/" style="fill-rule:evenodd;clip-rule:evenodd;stroke-linejoin:round;stroke-miterlimit:2;"><g id="Background"><path d="M0,25.429l0,-4l0.644,-0.605c0.055,0.226 -0.042,0.472 0.013,0.699c0.136,0.564 0.826,0.851 0.92,0.89c0.129,0.053 0.283,0.017 0.412,0.07c0.049,0.179 -0.117,0.374 -0.068,0.554c0.067,0.244 0.32,0.407 0.399,0.648c0.061,0.188 0.047,0.4 0.004,0.593c-0.045,0.201 -0.241,0.354 -0.264,0.559c-0.058,0.524 0.436,0.52 0.494,0.52c0.187,-0.001 0.357,-0.136 0.544,-0.137c0.385,0.131 0.771,0.261 1.156,0.392c-0.038,0.102 0.158,0.201 0.12,0.303c-0.098,0.267 -0.433,0.42 -0.489,0.698c-0.019,0.097 0.345,0.927 0.487,1.052c0.122,0.108 0.317,0.113 0.436,0.225c0.086,0.081 0.065,0.235 0.145,0.322c0.174,0.191 0.443,0.285 0.599,0.491c0.247,0.325 0.04,0.427 0.325,0.728c0.335,0.352 0.482,0.122 0.817,0.474c0.226,-0.021 0.211,0.077 0.439,0.056c0.029,-0.003 0.243,-0.023 0.336,-0.128c0.216,-0.246 0.298,-0.592 0.514,-0.838c0.94,-0.398 0.912,-0.431 1.721,-1.046c0.492,-0.936 0.346,-0.997 0.906,-1.904c0.299,0.081 0.597,0.162 0.896,0.243c0.103,-0.024 0.2,0.119 0.303,0.096c0.283,-0.065 0.652,-0.409 1.475,-1.12c0.936,-0.81 1.068,-0.973 1.147,-1.07c0.513,-0.633 0.489,-2.117 0.344,-2.295c-0.089,-0.11 -0.134,-0.27 -0.259,-0.336c-0.343,-0.184 -0.346,-0.028 -0.655,0.221c-0.123,0.099 -0.285,0.142 -0.408,0.241l-0.554,-0.702c0.1,-0.211 0.323,-0.347 0.422,-0.558c0.064,-0.136 0.044,-0.946 -0.006,-0.998c-0.093,-0.098 -0.28,-0.025 -0.405,0.027c-0.095,0.04 -0.113,0.183 -0.205,0.23c-0.055,0.028 -0.053,0.021 -0.718,0.284c-0.074,-0.206 -0.116,-0.423 -0.19,-0.63c-0.243,-0.678 -1.199,-1.259 -0.28,-1.913c0.207,-0.148 0.246,-0.155 0.27,-0.161c0.237,-0.049 0.233,0.056 0.469,0.007c1.272,0.604 1.317,0.548 2.313,1.532c0.498,0.492 0.546,0.407 1.191,0.651c0.002,0.151 -0.124,0.285 -0.122,0.435c0.004,0.214 0.098,0.416 0.139,0.626c0.328,1.648 -0.153,1.64 -0.079,1.76c0.106,0.173 0.393,-0.104 0.588,-0.161c0.378,-0.11 0.351,-0.15 0.61,-0.403c1.851,-1.811 2.002,-1.644 2.117,-1.836c0.292,-0.486 0.284,-2.681 0.127,-2.771c-0.354,-0.205 -2.517,1.683 -2.715,1.856c-0.31,-0.463 -0.5,-0.263 -0.811,-0.727c-0.025,-0.038 -0.056,-0.084 -0.056,-0.569c-0,-0.365 0.112,-0.733 0.056,-1.094c-0.047,-0.305 -0.311,-0.549 -0.359,-0.854c0.168,-0.005 0.332,0.065 0.5,0.06c0.178,-0.006 1.716,-0.053 2.121,-0.683c0.098,-0.152 -0.206,-0.596 1.207,-1.528c2.742,-1.809 2.723,-1.832 2.967,-1.979c1.301,-0.786 1.245,-0.859 1.794,-1.262c0.693,-0.51 1.526,-0.649 1.861,-0.99c0.422,-0.429 0.188,-1.846 0.187,-1.871c0.42,0.185 0.841,0.37 1.261,0.555c0.008,0.082 0.103,1.025 0.103,1.025c0.033,0.095 0.228,0.11 0.216,0.21c-0.02,0.169 -0.226,0.263 -0.291,0.42c-0.053,0.13 -0.102,0.248 -0.052,1.754c-1.559,-0.55 -1.717,-0.72 -3.032,0.283c-0.307,0.234 -1.567,1.045 -1.705,1.134c-1.253,0.806 -3.33,1.858 -3.277,2.545c0.042,0.539 1.465,0.213 1.427,2.282c-0.051,2.736 -0.155,2.856 -1.502,3.833c-1.243,0.902 -1.28,1.193 -2.256,1.757c-0.068,0.039 -0.542,0.139 -0.965,0.774c-0.885,1.327 -1.074,1.143 -2.334,2.266c-1.391,1.239 -1.799,0.941 -2.222,1.284c-0.101,0.082 0.082,0.24 -1.081,1.211c-0.169,0.141 -0.175,0.128 -2.127,1.737c-1.441,1.188 -2.762,-0.693 -3.934,-1.842c-0.91,-0.892 -0.913,-0.893 -1.388,-1.951c-0.381,-0.85 -0.91,-0.42 -1.774,-1.192c-0.104,-0.093 -0.156,-0.25 -0.282,-0.31c-0.21,-0.099 -0.472,-0.046 -0.682,-0.145Z" style="fill:#9db7bc;"/><path d="M10.126,13.039c0.181,0.159 0.428,0.231 0.61,0.39c0.164,0.144 0.212,0.421 0.413,0.507c0.472,0.202 0.433,-0.084 1.44,-0.74c0.079,0.305 0.421,0.498 0.5,0.804c0.035,0.135 -0.31,0.106 -0.172,1.733c0.078,0.922 0.519,0.622 0.512,0.691c-0.018,0.195 -0.377,0.239 -0.395,0.434l-0.775,0.753c-0.236,0.049 -0.232,-0.056 -0.469,-0.007c-0.025,0.005 -0.063,0.013 -0.27,0.161c-0.919,0.654 0.036,1.234 0.28,1.913c0.074,0.206 0.116,0.423 0.19,0.63c0.118,0.273 -0.148,0.284 -0.031,0.555c0.02,0.046 0.116,0.269 0.458,0.436c0.145,0.071 0.339,-0.046 0.484,0.025l0.554,0.702c-0.967,0.648 -0.962,0.642 -1.044,0.699c-0.336,0.235 -0.36,0.174 -0.733,0.353c-0.369,-0.053 -2.082,-0.588 -2.11,0.656c-0.019,0.865 0.167,0.837 0.154,0.91c-0.055,0.315 -1.731,1.355 -1.94,1.493c-0.446,0.294 -0.487,0.168 -0.676,0.233c-2.357,-1.436 -2.255,-1.672 -2.666,-2.058c0.17,-0.169 0.27,-0.4 0.439,-0.569c0.544,-0.543 1.492,-0.723 2.65,-2.369c0.089,-0.127 -0.119,-0.338 -0.03,-0.465c0.193,-0.274 0.582,-0.358 0.793,-0.619c0.115,-0.143 0.344,-1.389 -0.055,-1.613c-0.113,-0.064 -0.723,0.009 -0.878,0.14c-0.1,0.085 -0.113,0.247 -0.214,0.332c-0.255,0.212 -0.316,0.094 -0.572,0.322c-0.36,0.32 -0.25,0.41 -0.616,0.736c-0.071,0.043 -1.471,0.843 -1.516,0.875c-0.832,0.586 -0.792,0.635 -0.866,0.683c-0.993,0.642 -0.973,0.665 -1.071,0.694c-0.164,0.048 -0.348,-0.021 -0.512,0.027c-0.129,-0.053 -0.283,-0.017 -0.412,-0.07c-0.095,-0.039 -0.784,-0.326 -0.92,-0.89c-0.055,-0.226 0.042,-0.472 -0.013,-0.699c0.008,-0.098 0.104,-1.227 0.104,-1.227c0.037,-0.123 0.111,-0.065 1.135,-1.136c0.558,0.27 0.131,0.681 0.688,0.951c0.046,0.022 -0.026,-0.109 0.525,-0.363c0.128,-0.059 0.224,0.084 0.716,-0.291c0.958,-0.73 0.851,-0.842 0.938,-0.899c0.161,-0.103 0.388,-0.024 0.565,-0.096c0.239,-0.098 0.434,-0.281 0.66,-0.404c0.148,-0.08 0.318,-0.115 0.46,-0.206c0.045,-0.029 0.092,-0.151 0.54,-0.501c0.703,-0.548 1.247,-0.699 1.31,-0.734l0.571,-0.427l0.139,-0.349l-0.816,-0.712c0.997,-0.676 1.03,-0.62 1.946,-1.392Z" style="fill:#cae2e8;"/><path d="M31.999,1.429l0,0.571c-0.182,0.287 -0.663,0.282 -0.846,0.568c-0.057,0.09 0.431,0.892 -0.112,1.653c-0.876,1.227 0.136,1.425 -0.06,2.354c-0.201,0.954 -0.99,1.523 -1.755,2.053c-0.961,-0.022 -0.956,-0.014 -1.038,-0.023c-0.351,-0.041 -0.68,-0.209 -1.032,-0.25c-0.42,-0.185 -0.841,-0.37 -1.261,-0.555c-0.191,-0.149 -0.381,-0.299 -0.572,-0.448c-0.12,-0.088 -0.322,0.146 -0.442,0.058c-0.273,-0.201 -0.32,-0.628 -0.597,-0.824c-0.16,-0.113 -0.395,0.019 -0.588,-0.011c-0.313,-0.049 -0.282,-0.131 -0.6,-0.173c-0.325,-0.043 -0.316,0.052 -0.65,0.008c-0.074,-0.153 -0.235,-0.252 -0.309,-0.405c-0.084,-0.174 -0.093,-0.377 -0.158,-0.56c-0.034,-0.094 -0.294,-0.816 -0.789,-0.974c-0.035,-0.011 0.088,0.09 -0.247,0.387c-0.395,0.352 -0.464,0.246 -0.854,0.593c0.021,-0.246 -0.171,-2.137 1.403,-3.367c1.458,-1.14 1.687,-0.493 5.078,-0.852c-0.216,0.278 -0.355,0.611 -0.571,0.889c-0.092,0.118 -0.324,0.141 -0.344,0.29c-0.011,0.089 0.519,0.501 0.827,0.463c0.079,-0.01 0.059,-0.042 0.644,-1.506c0.01,-0.003 1.751,-0.68 3.376,-0.321c0.089,0.02 0.17,0.064 0.253,0.1c0.931,0.404 0.971,0.221 1.243,0.283Z" style="fill:#b1cdd0;"/><path d="M20.096,6.438c0.319,0.169 0.453,0.591 0.772,0.76c0.356,0.189 0.886,-0.261 0.947,-0.313c0.09,-0.077 0.14,-0.196 0.234,-0.267c0.12,-0.09 0.279,-0.12 0.399,-0.21c0.334,0.044 0.325,-0.051 0.65,-0.008c0.318,0.042 0.287,0.125 0.6,0.173c0.194,0.03 0.428,-0.102 0.588,0.011c0.277,0.195 0.324,0.622 0.597,0.824c0.12,0.088 0.322,-0.146 0.442,-0.058c-0.73,0.228 -0.946,0.012 -3.416,1.953c-0.99,0.778 -1.116,0.588 -2.076,1.398c-0.906,0.765 -0.935,0.711 -1.938,1.348c-1.237,0.817 -1.277,0.753 -2.381,1.757c-0.096,0.094 -0.216,0.161 -0.312,0.255c-1.345,1.33 -0.297,1.738 0.056,1.991c0.047,0.305 0.311,0.549 0.359,0.854c0.056,0.361 -0.056,0.729 -0.056,1.094c0,0.485 0.031,0.531 0.056,0.569c0.31,0.464 0.501,0.264 0.811,0.727c-0.222,0.165 -0.443,0.33 -0.665,0.494c-0.645,-0.244 -0.694,-0.159 -1.191,-0.651c-0.996,-0.984 -1.041,-0.928 -2.313,-1.532l0.775,-0.753c0.018,-0.195 0.377,-0.239 0.395,-0.434c0.006,-0.069 -0.435,0.231 -0.512,-0.691c-0.137,-1.626 0.207,-1.598 0.172,-1.733c-0.079,-0.305 -0.421,-0.498 -0.5,-0.804c0.039,-0.073 0.49,-0.91 0.49,-0.91c-0.019,-0.295 -0.365,-0.505 -0.384,-0.8c2.353,-1.398 2.178,-1.697 4.205,-2.549c1.327,-0.558 1.421,-0.904 2.374,-1.579c0.515,-0.365 0.483,-0.392 0.823,-0.919Z" style="fill:#bddce1;"/><path d="M25.325,7.352c0.191,0.149 0.381,0.299 0.572,0.448c0.001,0.025 0.235,1.442 -0.187,1.871c-0.335,0.341 -1.168,0.481 -1.861,0.99c-0.549,0.404 -0.493,0.476 -1.794,1.262c-0.244,0.148 -0.225,0.17 -2.967,1.979c-1.413,0.932 -1.109,1.377 -1.207,1.528c-0.405,0.63 -1.943,0.677 -2.121,0.683c-0.168,0.005 -0.332,-0.065 -0.5,-0.06c-0.353,-0.253 -1.401,-0.662 -0.056,-1.991c0.096,-0.094 0.216,-0.161 0.312,-0.255c0.338,0.088 0.451,0.602 0.789,0.69c0.072,0.019 2.44,-1.377 2.421,-1.574c-0.037,-0.4 -0.792,-0.473 -0.829,-0.873c1.003,-0.637 1.031,-0.583 1.938,-1.348c0.96,-0.81 1.086,-0.62 2.076,-1.398c2.47,-1.941 2.686,-1.726 3.416,-1.953Z" style="fill:#475e64;"/><path d="M5.955,20.203c0.208,0.036 0.419,-0.127 0.627,-0.091c0.127,0.022 0.722,0.493 0.796,0.643c0.093,0.189 0.057,0.425 0.149,0.614c-1.157,1.646 -2.106,1.826 -2.65,2.369c-0.17,0.169 -0.27,0.4 -0.439,0.569c-0.447,0.303 -0.893,0.607 -1.34,0.91c-0.187,0.001 -0.357,0.136 -0.544,0.137c-0.057,0 -0.552,0.004 -0.494,-0.52c0.023,-0.205 0.218,-0.358 0.264,-0.559c0.043,-0.193 0.057,-0.405 -0.004,-0.593c-0.078,-0.241 -0.331,-0.403 -0.399,-0.648c-0.049,-0.179 0.117,-0.374 0.068,-0.554c0.164,-0.048 0.348,0.021 0.512,-0.027c0.098,-0.029 0.078,-0.052 1.071,-0.694c0.074,-0.048 0.034,-0.097 0.866,-0.683c0.045,-0.032 1.445,-0.832 1.516,-0.875Z" style="fill:#304446;"/><path d="M11.677,23.075l-0.032,0.592c-0.22,0.257 -0.566,0.386 -0.786,0.643c-0.301,0.351 -0.154,0.401 -0.247,1.732c-0.56,0.907 -0.414,0.968 -0.906,1.904c-0.564,-0.25 -0.296,-0.58 -0.868,-0.833c-0.038,-0.017 -0.052,-0.023 -0.451,0.249c-0.766,0.523 -0.471,0.705 -0.402,1.63c-0.216,0.246 -0.298,0.592 -0.514,0.838c-0.093,0.105 -0.307,0.125 -0.336,0.128c-0.228,0.021 -0.213,-0.077 -0.439,-0.056c-0.018,-0.168 -0.215,-0.283 -0.232,-0.451c-0.005,-0.048 0.033,-0.033 0.123,-0.593c0.105,-0.652 0.012,-1.109 0.013,-1.146c0.076,-0.182 -0.229,-0.391 -0.153,-0.573c0.017,-0.041 0.133,0.177 0.495,-0.247c0.187,-0.219 -0.024,-0.304 0.164,-0.525c0.19,-0.065 0.231,0.061 0.676,-0.233c0.21,-0.138 1.886,-1.177 1.94,-1.493c0.013,-0.073 -0.174,-0.045 -0.154,-0.91c0.028,-1.243 1.741,-0.708 2.11,-0.656Z" style="fill:#31474b;"/><path d="M31.999,8.286l0,2.286c-0.193,0.109 -0.459,0.023 -0.652,0.132c-0.061,0.034 0.037,0.109 -0.583,0.652c-0.988,0.864 -2.286,0.566 -3.63,0.409c-0.05,-1.506 -0.002,-1.624 0.052,-1.754c0.065,-0.158 0.271,-0.251 0.291,-0.42c0.012,-0.1 -0.183,-0.115 -0.216,-0.21c0,0 -0.095,-0.943 -0.103,-1.025c0.351,0.041 0.68,0.209 1.032,0.25c0.083,0.01 0.077,0.002 1.038,0.023c-0.029,0.139 -0.28,0.153 -0.309,0.291c-0.037,0.177 0.126,0.345 0.138,0.525c0.012,0.18 -0.072,0.357 -0.068,0.538c0.015,0.724 0.283,0.749 0.959,0.471c0.378,-0.156 0.98,-1.588 1.049,-1.648c0.285,-0.247 0.719,-0.274 1.004,-0.52Z" style="fill:#92acb1;"/><path d="M8.18,14.431l0.816,0.712l-0.139,0.349l-0.571,0.427c-0.063,0.035 -0.607,0.186 -1.31,0.734c-0.448,0.35 -0.495,0.472 -0.54,0.501c-0.142,0.09 -0.312,0.125 -0.46,0.206c-0.227,0.123 -0.421,0.307 -0.66,0.404c-0.177,0.072 -0.404,-0.007 -0.565,0.096c-0.087,0.056 0.02,0.168 -0.938,0.899c-0.492,0.375 -0.587,0.231 -0.716,0.291c-0.552,0.254 -0.479,0.385 -0.525,0.363c-0.557,-0.27 -0.13,-0.681 -0.688,-0.951c1.469,-1.51 1.675,-1.232 3.417,-2.415c1.37,-0.931 1.508,-0.676 2.88,-1.616Z" style="fill:#8cb5b4;"/><path d="M31.999,2l0,6.286c-0.285,0.247 -0.719,0.274 -1.004,0.52c-0.068,0.059 -0.67,1.492 -1.049,1.648c-0.676,0.278 -0.944,0.253 -0.959,-0.471c-0.004,-0.181 0.08,-0.357 0.068,-0.538c-0.012,-0.181 -0.175,-0.348 -0.138,-0.525c0.029,-0.139 0.28,-0.153 0.309,-0.291c0.765,-0.53 1.554,-1.099 1.755,-2.053c0.195,-0.928 -0.816,-1.127 0.06,-2.354c0.543,-0.761 0.054,-1.563 0.112,-1.653c0.182,-0.287 0.663,-0.282 0.846,-0.568Z" style="fill:#314e53;"/><path d="M16.428,19.298c0.198,-0.173 2.361,-2.061 2.715,-1.856c0.157,0.091 0.165,2.285 -0.127,2.771c-0.115,0.192 -0.266,0.026 -2.117,1.836c-0.259,0.253 -0.232,0.293 -0.61,0.403c-0.195,0.057 -0.482,0.334 -0.588,0.161c-0.074,-0.12 0.408,-0.113 0.079,-1.76c-0.042,-0.21 -0.136,-0.412 -0.139,-0.626c-0.002,-0.151 0.124,-0.285 0.122,-0.435c0.222,-0.165 0.443,-0.33 0.665,-0.494Z" style="fill:#2f4548;"/><path d="M13.454,22.022c0.123,-0.099 0.285,-0.142 0.408,-0.241c0.309,-0.249 0.312,-0.405 0.655,-0.221c0.125,0.067 0.169,0.227 0.259,0.336c0.145,0.178 0.169,1.662 -0.344,2.295c-0.079,0.097 -0.211,0.26 -1.147,1.07c-0.822,0.712 -1.192,1.055 -1.475,1.12c-0.103,0.024 -0.2,-0.119 -0.303,-0.096c0.113,-0.459 0.225,-0.918 0.338,-1.377c-0.007,-0.207 -0.013,-0.415 -0.02,-0.622l-0.181,-0.62l0.032,-0.592c0.373,-0.18 0.398,-0.118 0.733,-0.353c0.082,-0.058 0.077,-0.052 1.044,-0.699Z" style="fill:#3c5055;"/><path d="M4.255,25.61c1.152,1.072 1.195,1.004 2.343,2.102c-0,0.037 0.092,0.494 -0.013,1.146c-0.09,0.56 -0.128,0.544 -0.123,0.593c0.018,0.168 0.215,0.283 0.232,0.451c-0.335,-0.352 -0.482,-0.121 -0.817,-0.474c-0.285,-0.3 -0.078,-0.402 -0.325,-0.728c-0.156,-0.206 -0.425,-0.301 -0.599,-0.491c-0.079,-0.087 -0.059,-0.241 -0.145,-0.322c-0.119,-0.112 -0.314,-0.116 -0.436,-0.225c-0.142,-0.125 -0.506,-0.955 -0.487,-1.052c0.056,-0.279 0.391,-0.432 0.489,-0.698c0.038,-0.102 -0.158,-0.201 -0.12,-0.303Z" style="fill:#74909a;"/><path d="M4.439,24.308c0.411,0.387 0.309,0.622 2.666,2.058c-0.188,0.221 0.023,0.306 -0.164,0.525c-0.362,0.424 -0.478,0.206 -0.495,0.247c-0.076,0.182 0.229,0.391 0.153,0.573c-1.148,-1.097 -1.191,-1.029 -2.343,-2.102c-0.385,-0.131 -0.771,-0.261 -1.156,-0.392c0.447,-0.303 0.893,-0.607 1.34,-0.91Z" style="fill:#405b67;"/><path d="M20.091,5.45c0.39,-0.347 0.458,-0.24 0.854,-0.593c0.334,-0.297 0.212,-0.398 0.247,-0.387c0.495,0.158 0.755,0.88 0.789,0.974c0.066,0.182 0.074,0.385 0.158,0.56c0.074,0.153 0.235,0.252 0.309,0.405c-0.12,0.09 -0.279,0.12 -0.399,0.21c-0.095,0.071 -0.144,0.19 -0.234,0.267c-0.061,0.052 -0.59,0.501 -0.947,0.313c-0.319,-0.169 -0.453,-0.591 -0.772,-0.76c-0.002,-0.33 -0.003,-0.659 -0.005,-0.989Z" style="fill:#5c7880;"/><path d="M12.694,11.485c0.019,0.295 0.365,0.505 0.384,0.8c0,0 -0.451,0.838 -0.49,0.91c-1.007,0.655 -0.968,0.941 -1.44,0.74c-0.2,-0.086 -0.249,-0.363 -0.413,-0.507c-0.181,-0.159 -0.428,-0.231 -0.61,-0.39c1.164,-1.084 1.802,-1.253 2.568,-1.553Z" style="fill:#759499;"/><path d="M17.895,12.052c0.037,0.4 0.792,0.473 0.829,0.873c0.018,0.197 -2.349,1.593 -2.421,1.574c-0.338,-0.088 -0.451,-0.602 -0.789,-0.69c1.103,-1.004 1.144,-0.94 2.381,-1.757Z" style="fill:#374c51;"/><path d="M5.955,20.203c0.366,-0.326 0.256,-0.415 0.616,-0.736c0.256,-0.228 0.317,-0.11 0.572,-0.322c0.101,-0.084 0.114,-0.247 0.214,-0.332c0.155,-0.131 0.765,-0.204 0.878,-0.14c0.398,0.224 0.17,1.469 0.055,1.613c-0.21,0.261 -0.6,0.345 -0.793,0.619c-0.089,0.127 0.119,0.338 0.03,0.465c-0.093,-0.189 -0.057,-0.425 -0.149,-0.614c-0.074,-0.151 -0.67,-0.621 -0.796,-0.643c-0.208,-0.036 -0.419,0.127 -0.627,0.091Z" style="fill:#8eacb0;"/><path d="M27.125,5.992c0.122,-0.085 0.12,-0.29 0.242,-0.375c0.247,-0.172 2.069,-0.147 1.962,0.923c-0.076,0.758 -2.11,1.012 -2.267,0.045c-0.032,-0.196 0.095,-0.396 0.063,-0.592Z" style="fill:#1f393d;"/><path d="M23.279,3.389c0.153,-0.009 0.299,-0.081 0.452,-0.09c0.141,-0.009 1.632,-0.099 1.387,1.097c-0.055,0.268 -1.518,0.477 -1.883,0.278c-0.756,-0.413 -0.602,-0.703 0.044,-1.285Z" style="fill:#111d2a;"/><path d="M28.855,2.42c0.761,0.279 1.089,0.048 1.095,0.736c0.011,1.137 -1.613,0.755 -1.761,0.72c-1.074,-0.253 -0.273,-1.073 -0.209,-1.139c0,-0 0.804,-0.292 0.874,-0.317Z" style="fill:#15373e;"/><path d="M11.645,23.667l0.181,0.62l0.02,0.622c-0.113,0.459 -0.225,0.918 -0.338,1.377c-0.299,-0.081 -0.597,-0.162 -0.896,-0.243c0.093,-1.331 -0.053,-1.381 0.247,-1.732c0.22,-0.257 0.566,-0.386 0.786,-0.643Z" style="fill:#76888e;"/><path d="M9.705,27.946c-0.809,0.615 -0.781,0.649 -1.721,1.046c-0.069,-0.925 -0.363,-1.107 0.402,-1.63c0.399,-0.273 0.413,-0.266 0.451,-0.249c0.572,0.253 0.304,0.583 0.868,0.833Z" style="fill:#555f6b;"/><path d="M11.989,20.305c0.665,-0.263 0.664,-0.255 0.718,-0.284c0.091,-0.047 0.11,-0.19 0.205,-0.23c0.125,-0.053 0.312,-0.126 0.405,-0.027c0.05,0.053 0.07,0.862 0.006,0.998c-0.1,0.211 -0.323,0.347 -0.422,0.558c-0.145,-0.071 -0.339,0.046 -0.484,-0.025c-0.343,-0.167 -0.438,-0.39 -0.458,-0.436c-0.117,-0.27 0.149,-0.282 0.031,-0.555Z" style="fill:#1d3a3e;"/><path d="M26.571,1.23l0.556,0.136c-0.585,1.464 -0.566,1.496 -0.644,1.506c-0.308,0.039 -0.838,-0.374 -0.827,-0.463c0.019,-0.149 0.252,-0.172 0.344,-0.29c0.216,-0.278 0.355,-0.611 0.571,-0.889Z" style="fill:#508078;"/></g></svg>